<?xml version="1.0" encoding="UTF-8"?>
<svg width="23px" height="39px" viewBox="0 0 23 39" version="1.1" xmlns="http://www.w3.org/2000/svg" xmlns:xlink="http://www.w3.org/1999/xlink">
    <title>7D15B275-F866-4F3E-B650-ED3FA60A7B79</title>
    <g id="Page-1" stroke="none" stroke-width="1" fill="none" fill-rule="evenodd" opacity="0.251581101">
        <g id="DT-Gas-Tab-2" transform="translate(-99.000000, -348.000000)" fill="#FFFFFF">
            <g id="Group-3" transform="translate(80.000000, 298.000000)">
                <path d="M49.2060563,61.75 C49.2060563,62.0774674 49.0802314,62.367026 48.8285816,62.6186758 L31.2106758,80.2365816 C30.959026,80.4882314 30.6694674,80.6140563 30.342,80.6140563 C30.0145326,80.6140563 29.724974,80.4882314 29.4733242,80.2365816 L11.8554184,62.6186758 C11.6037686,62.367026 11.4779437,62.0774674 11.4779437,61.75 C11.4779437,61.4225326 11.6037686,61.132974 11.8554184,60.8813242 L13.7452116,58.991531 C13.9968614,58.7398812 14.28642,58.6140563 14.6138874,58.6140563 C14.9413547,58.6140563 15.2309133,58.7398812 15.4825631,58.991531 L30.342,73.8509679 L45.2014369,58.991531 C45.4530867,58.7398812 45.7426453,58.6140563 46.0701126,58.6140563 C46.39758,58.6140563 46.6871386,58.7398812 46.9387884,58.991531 L48.8285816,60.8813242 C49.0802314,61.132974 49.2060563,61.4225326 49.2060563,61.75 L49.2060563,61.75 Z" id="arrow-right-copy" transform="translate(30.342000, 69.614056) rotate(-270.000000) translate(-30.342000, -69.614056) "></path>
            </g>
        </g>
    </g>
</svg>