<?xml version="1.0" encoding="UTF-8"?>
<svg width="376px" height="42px" viewBox="0 0 376 42" version="1.1" xmlns="http://www.w3.org/2000/svg" xmlns:xlink="http://www.w3.org/1999/xlink">
    <title>403EA02F-E8C6-4295-B8CC-BC08A240B608</title>
    <g id="Page-1" stroke="none" stroke-width="1" fill="none" fill-rule="evenodd">
        <g id="DT-Gas-Home" transform="translate(-60.000000, -31.000000)">
            <g id="GAS-Logo-V2-modified" transform="translate(60.000000, 31.000000)">
                <g id="Group" transform="translate(186.251163, 3.547761)" fill="#FFFFFF" fill-rule="nonzero">
                    <path d="M11.9477855,7.14624357 L11.9477855,11.6864957 C10.6006331,12.7149664 8.95221035,13.2829938 7.25050545,13.3051239 C5.52603401,13.3397785 3.85906076,12.6914903 2.62036435,11.5044555 C1.38166794,10.3174208 0.673967131,8.69007435 0.654673178,6.98438074 C0.686678184,5.27565542 1.40907794,3.65072571 2.66063006,2.47228215 C3.91218218,1.29383859 5.588698,0.659983735 7.31597276,0.712196414 C9.04218278,0.705166788 10.7129883,1.31439005 12.0214362,2.42794232 L11.2030948,3.50433008 C10.1448124,2.57534439 8.78010494,2.06023163 7.36507325,2.05565783 C6.00958056,2.02310926 4.69730766,2.52847898 3.72102951,3.45901634 C2.74475137,4.3895537 2.18570079,5.66783182 2.1686049,7.00866017 C2.19003021,8.3531004 2.75356499,9.6333846 3.73396779,10.564979 C4.71437059,11.4965735 6.03041632,12.0022968 7.3896235,11.9697556 C8.57789062,11.9513614 9.73401819,11.5852565 10.7120899,10.9176473 L10.7120899,7.14624357 L11.9477855,7.14624357 Z" id="Path"></path>
                    <path d="M16.6614324,5.93227241 C17.2411339,4.58461353 18.6023271,3.73117563 20.0820997,3.78759002 L20.0820997,5.19579657 C19.2118114,5.12645602 18.351185,5.41551908 17.7035973,5.99467654 C17.0560096,6.57383401 16.6789175,7.39170045 16.6614324,8.25500389 L16.6614324,13.2565651 L15.2948021,13.2565651 L15.2948021,3.84424201 L16.7023495,3.84424201 L16.6614324,5.93227241 Z" id="Path"></path>
                    <path d="M30.1804335,9.09669056 L22.4143729,9.09669056 C22.5494594,10.861761 24.0709692,12.2056489 25.8595905,12.1397116 C26.9653568,12.1699812 28.0335389,11.7415528 28.8056198,10.958113 L29.6239613,11.7674271 C28.6359699,12.812418 27.239927,13.3847357 25.7941232,13.3374965 C24.4997085,13.4022409 23.2388075,12.9179815 22.3278335,12.0062394 C21.4168595,11.0944974 20.9422819,9.84181497 21.0231924,8.56254325 C20.9510394,7.29694451 21.421023,6.0597868 22.3179645,5.1542596 C23.2149059,4.24873239 24.4559081,3.75852648 25.7368393,3.8037763 C28.8056198,3.78759002 30.327735,5.89989984 30.1804335,9.09669056 Z M28.9120042,7.95555767 C28.921011,7.13646929 28.5828704,6.3510587 27.9795845,5.78979515 C27.3762987,5.22853161 26.5629704,4.94267972 25.7368393,5.00156118 C24.0040848,4.93632803 22.5325522,6.2446639 22.4143729,7.95555767 L28.9120042,7.95555767 Z" id="Shape"></path>
                    <path d="M40.8025058,9.09669056 L33.0364452,9.09669056 C33.1757014,10.8630117 34.6996516,12.2058655 36.4898463,12.1397116 C37.594888,12.1660369 38.6615365,11.7382237 39.4358756,10.958113 L40.2133,11.7674271 C39.2221595,12.8128002 37.8235103,13.3849638 36.3752784,13.3374965 C35.0905929,13.385667 33.8452605,12.8941033 32.9471777,11.9843399 C32.0490949,11.0745765 31.5820922,9.83153417 31.6616316,8.56254325 C31.5894786,7.29694451 32.0594621,6.0597868 32.9564036,5.1542596 C33.8533451,4.24873239 35.0943472,3.75852648 36.3752784,3.8037763 C39.4358756,3.78759002 40.9498073,5.89989984 40.8025058,9.09669056 Z M39.5422599,7.95555767 C39.5489586,7.13572782 39.2089501,6.35042538 38.6044049,5.78943614 C37.9998598,5.22844691 37.1857821,4.9428119 36.3589116,5.00156118 C34.6261571,4.93632803 33.1546246,6.2446639 33.0364452,7.95555767 L39.5422599,7.95555767 Z" id="Shape"></path>
                    <path d="M51.9401333,7.45378293 L51.9401333,13.2565651 L50.5244025,13.2565651 L50.5244025,7.82606742 C50.5943441,7.10228547 50.3326169,6.3855997 49.8111767,5.87304659 C49.2897366,5.36049347 48.5634742,5.10602822 47.8320591,5.17961029 C47.0012049,5.15121806 46.1939278,5.45564483 45.5931261,6.02391906 C44.9923243,6.5921933 44.6488522,7.376214 44.6405273,8.19835191 L44.6405273,13.2565651 L43.2247966,13.2565651 L43.2247966,3.84424201 L44.6405273,3.84424201 L44.6405273,5.91608612 C45.2985078,4.51599441 46.7666572,3.66740812 48.3230639,3.78759002 C50.5980532,3.78759002 51.9401333,5.17961029 51.9401333,7.45378293 Z" id="Path"></path>
                    <polygon id="Path" points="55.1725821 13.2565651 55.1725821 -2.769976e-15 56.5801294 -2.769976e-15 56.5801294 13.2565651"></polygon>
                    <path d="M61.7111304,1.14113289 C61.7441309,1.48691084 61.5762305,1.82133401 61.277749,2.00433965 C60.9792675,2.18734529 60.601725,2.18734529 60.3032436,2.00433965 C60.0047621,1.82133401 59.8368616,1.48691084 59.8698621,1.14113289 C59.8368616,0.795354946 60.0047621,0.460931774 60.3032436,0.277926132 C60.601725,0.0949204898 60.9792675,0.0949204898 61.277749,0.277926132 C61.5762305,0.460931774 61.7441309,0.795354946 61.7111304,1.14113289 Z M60.0744475,13.2808445 L60.0744475,3.84424201 L61.465628,3.84424201 L61.465628,13.2565651 L60.0744475,13.2808445 Z" id="Shape"></path>
                    <path d="M73.225195,12.277295 C73.225195,15.028963 71.3266427,16.7608952 68.4378973,16.7608952 C67.0174829,16.7408456 65.6441892,16.2539637 64.5344085,15.376968 L65.1808983,14.3086734 C66.0677776,15.0743958 67.203333,15.4994808 68.3806134,15.5064583 C70.4592008,15.5064583 71.8176476,14.2520214 71.8176476,12.2692019 L71.8176476,10.8852747 C71.131462,12.1580612 69.7636086,12.9243123 68.3069627,12.851908 C65.7455539,12.851908 63.9697529,10.9742993 63.9697529,8.2954696 C63.8873796,7.12054181 64.305638,5.96508998 65.1232825,5.10880862 C65.9409269,4.25252725 67.0834291,3.77346643 68.274229,3.78759002 C69.7400362,3.71242744 71.1188719,4.47769526 71.8176476,5.7542233 L71.8176476,3.84424201 L73.225195,3.84424201 L73.225195,12.277295 Z M71.8176476,8.34402844 C71.8176476,6.55614109 70.3521118,5.10677202 68.5442817,5.10677202 C66.7364517,5.10677202 65.2709158,6.55614109 65.2709158,8.34402844 C65.2709158,10.1319158 66.7364517,11.5812849 68.5442817,11.5812849 C70.3521118,11.5812849 71.8176476,10.1319158 71.8176476,8.34402844 Z" id="Shape"></path>
                    <path d="M85.2384478,7.45378293 L85.2384478,13.2565651 L83.8309004,13.2565651 L83.8309004,7.82606742 C83.9008421,7.10228547 83.6391148,6.3855997 83.1176747,5.87304659 C82.5962345,5.36049347 81.8699722,5.10602822 81.138557,5.17961029 C79.1172536,5.17961029 77.922475,6.61209626 77.922475,8.62728838 L77.922475,13.2565651 L76.5149277,13.2565651 L76.5149277,-2.769976e-15 L77.922475,-2.769976e-15 L77.922475,5.94845869 C78.5715435,4.52514425 80.0560737,3.65980849 81.6295619,3.78759002 C83.9045512,3.78759002 85.2384478,5.17961029 85.2384478,7.45378293 Z" id="Path"></path>
                    <path d="M93.2991113,12.6172069 C92.6696129,13.0556553 91.9245452,13.3031465 91.1550566,13.3294033 C89.7638761,13.3294033 88.7000322,12.5200892 88.7000322,10.6505737 L88.7000322,5.26863484 L87.3252185,5.26863484 L87.3252185,4.14368823 L88.7000322,4.14368823 L88.7000322,1.65909392 L90.0912127,1.65909392 L90.0912127,4.14368823 L93.1027093,4.14368823 L93.1027093,5.26863484 L90.0912127,5.26863484 L90.0912127,10.3996863 C90.0912127,11.5408192 90.5413005,11.9697556 91.3514586,11.9697556 C91.8937498,11.9530492 92.4206978,11.7877429 92.8735737,11.4922603 L93.2991113,12.6172069 Z" id="Path"></path>
                    <path d="M2.9460293,31.5632502 L1.53848197,34.7276683 L3.63802595e-14,34.7276683 L5.67928982,22.2237654 L7.17685471,22.2237654 L12.8397777,34.7033889 L11.2685621,34.7033889 L9.85283133,31.5632502 L2.9460293,31.5632502 Z M6.38306348,23.8504867 L3.55978541,30.1874162 L9.23907522,30.1874162 L6.38306348,23.8504867 Z" id="Shape"></path>
                    <path d="M22.3734559,34.7033889 L20.9659085,34.7033889 L20.9659085,32.5748928 C20.3571854,33.9936453 18.9030981,34.8720902 17.3488392,34.7600409 C15.1311338,34.7600409 13.7890538,33.3680206 13.7890538,31.093848 L13.7890538,25.2910658 L15.1966011,25.2910658 L15.1966011,30.7539361 C15.1289028,31.468492 15.3843318,32.1760578 15.8943054,32.6866514 C16.4042789,33.1972451 17.1165393,33.4585455 17.8398441,33.4003932 C19.8038636,33.4003932 20.9659085,31.951721 20.9659085,29.944622 L20.9659085,25.2910658 L22.3734559,25.2910658 L22.3734559,34.7033889 Z" id="Path"></path>
                    <path d="M30.7205389,34.0640308 C30.0887307,34.5039703 29.3406004,34.7515338 28.5683008,34.7762272 C27.1771203,34.7762272 26.1541935,33.9669131 26.1541935,32.0973975 L26.1541935,26.7073655 L24.7793798,26.7073655 L24.7793798,25.5905121 L26.1541935,25.5905121 L26.1541935,23.1059178 L27.5699242,23.1059178 L27.5699242,25.5905121 L30.5814208,25.5905121 L30.5814208,26.7073655 L27.5699242,26.7073655 L27.5699242,31.838417 C27.5699242,32.9795499 28.020012,33.4084863 28.8301701,33.4084863 C29.3724613,33.3917799 29.8994093,33.2264736 30.3522852,32.930991 L30.7205389,34.0640308 Z" id="Path"></path>
                    <path d="M41.3998951,29.9850877 C41.4728478,31.7364403 40.5696638,33.3865352 39.0470356,34.2837042 C37.5244074,35.1808732 35.6271368,35.1808732 34.1045086,34.2837042 C32.5818804,33.3865352 31.6786965,31.7364403 31.7516491,29.9850877 C31.8582241,27.426576 33.9865276,25.4066745 36.5757721,25.4066745 C39.1650166,25.4066745 41.2933202,27.426576 41.3998951,29.9850877 L41.3998951,29.9850877 Z M33.1591965,29.9850877 C33.0974871,31.2317012 33.73485,32.4106463 34.8173648,33.0522403 C35.8998796,33.6938343 37.2516647,33.6938343 38.3341794,33.0522403 C39.4166942,32.4106463 40.0540571,31.2317012 39.9923478,29.9850877 C40.0540571,28.7384741 39.4166942,27.559529 38.3341794,26.917935 C37.2516647,26.276341 35.8998796,26.276341 34.8173648,26.917935 C33.73485,27.559529 33.0974871,28.7384741 33.1591965,29.9850877 Z" id="Shape"></path>
                    <path d="M59.6161763,28.9006068 L59.6161763,34.7033889 L58.2086289,34.7033889 L58.2086289,29.2728913 C58.2815219,28.5556745 58.028403,27.8435068 57.5177778,27.3291339 C57.0071527,26.8147609 56.2918215,26.5513704 55.565386,26.6102478 C53.6013664,26.6668998 52.4638718,28.0589201 52.4638718,30.0741122 L52.4638718,34.7033889 L51.0317742,34.7033889 L51.0317742,29.2728913 C51.1043146,28.557194 50.8522449,27.846526 50.3435206,27.3324763 C49.8347962,26.8184267 49.1217875,26.5539138 48.3967147,26.6102478 C46.4408786,26.6668998 45.2706503,28.0589201 45.2706503,30.0741122 L45.2706503,34.7033889 L43.8794698,34.7033889 L43.8794698,25.2910658 L45.2706503,25.2910658 L45.2706503,27.4114688 C45.8859753,25.9916361 47.3466718,25.1164269 48.9040864,25.2344139 C50.4862009,25.1190067 51.924265,26.1421725 52.3165703,27.6623562 C52.8631158,26.1012599 54.4076072,25.1029242 56.0727577,25.2344139 C58.2986465,25.2344139 59.6161763,26.6264341 59.6161763,28.9006068 Z" id="Path"></path>
                    <path d="M71.4330271,29.9850877 C71.5059798,31.7364403 70.6027958,33.3865352 69.0801676,34.2837042 C67.5575394,35.1808732 65.6602689,35.1808732 64.1376407,34.2837042 C62.6150125,33.3865352 61.7118285,31.7364403 61.7847812,29.9850877 C61.8913561,27.426576 64.0196597,25.4066745 66.6089041,25.4066745 C69.1981486,25.4066745 71.3264522,27.426576 71.4330271,29.9850877 L71.4330271,29.9850877 Z M63.1923285,29.9850877 C63.1306191,31.2317012 63.7679821,32.4106463 64.8504968,33.0522403 C65.9330116,33.6938343 67.2847967,33.6938343 68.3673115,33.0522403 C69.4498262,32.4106463 70.0871892,31.2317012 70.0254798,29.9850877 C70.0871892,28.7384741 69.4498262,27.559529 68.3673115,26.917935 C67.2847967,26.276341 65.9330116,26.276341 64.8504968,26.917935 C63.7679821,27.559529 63.1306191,28.7384741 63.1923285,29.9850877 L63.1923285,29.9850877 Z" id="Shape"></path>
                    <path d="M78.8226506,34.0640308 C78.1936135,34.5126072 77.4452593,34.7686871 76.6704126,34.8005066 C75.279232,34.8005066 74.2153881,33.9911925 74.2153881,32.1216769 L74.2153881,26.7073655 L72.8405745,26.7073655 L72.8405745,25.5905121 L74.2153881,25.5905121 L74.2153881,23.1059178 L75.6065686,23.1059178 L75.6065686,25.5905121 L78.6262487,25.5905121 L78.6262487,26.7073655 L75.6065686,26.7073655 L75.6065686,31.838417 C75.6065686,32.9795499 76.0566564,33.4084863 76.8668145,33.4084863 C77.4091058,33.3917799 77.9360538,33.2264736 78.3889296,32.930991 L78.8226506,34.0640308 Z" id="Path"></path>
                    <path d="M82.5706546,22.5879567 C82.5438845,23.0858515 82.1187769,23.4707837 81.614925,23.4533636 C81.1110731,23.4359435 80.7141843,23.0225917 80.7226373,22.5240636 C80.7310903,22.0255355 81.1417695,21.6255763 81.6459287,21.624872 C81.8999304,21.6245186 82.1428966,21.7275068 82.3177996,21.9096649 C82.4927026,22.0918229 82.5841416,22.3371111 82.5706546,22.5879567 Z M80.9339716,34.7276683 L80.9339716,25.2910658 L82.3251521,25.2910658 L82.3251521,34.7033889 L80.9339716,34.7276683 Z" id="Shape"></path>
                    <polygon id="Path" points="87.9144244 34.7033889 84.1418702 25.2910658 85.6721687 25.2910658 88.7082156 33.2547167 91.7278956 25.2910658 93.1518098 25.2910658 89.4119893 34.7033889"></polygon>
                    <path d="M102.677305,30.5435144 L94.911244,30.5435144 C95.0710794,32.2937259 96.5890162,33.6134942 98.364645,33.5460697 C99.4696867,33.572395 100.536335,33.1445818 101.310674,32.3644711 L102.079915,33.1737853 C101.103389,34.2403041 99.7043866,34.831573 98.2500772,34.7924135 C96.9671324,34.844696 95.7215762,34.3584399 94.8206685,33.4535971 C93.9197607,32.5487543 93.4473829,31.3095727 93.5200635,30.0417397 C93.4479105,28.7761409 93.917894,27.5389832 94.8148355,26.633456 C95.711777,25.7279288 96.9527791,25.2377229 98.2337103,25.2829727 C101.310674,25.2344139 102.85734,27.3467237 102.677305,30.5435144 Z M101.417059,29.3942884 C101.423945,28.5750862 101.083693,27.7904535 100.478834,27.230711 C99.8739752,26.6709685 99.0597694,26.3872539 98.2337103,26.448385 C96.5039194,26.3829599 95.0336262,27.6866124 94.911244,29.3942884 L101.417059,29.3942884 Z" id="Shape"></path>
                    <path d="M118.021207,23.3001531 L117.407451,24.6436146 C116.370703,23.9711638 115.16106,23.606096 113.921316,23.5915062 C112.284633,23.5915062 111.228973,24.1984918 111.228973,25.2506001 C111.228973,28.4878566 118.348544,26.7882969 118.332205,31.3285491 C118.332205,33.4165795 116.466358,34.7600409 113.757648,34.7600409 C111.958831,34.7412335 110.23163,34.0602827 108.913067,32.8500596 L109.56774,31.5632502 C110.695921,32.6530692 112.197592,33.282939 113.774015,33.3275549 C115.598916,33.3275549 116.736411,32.5991722 116.736411,31.4013874 C116.736411,28.1074789 109.64139,29.8636906 109.64139,25.3800904 C109.64139,23.4134571 111.392641,22.142834 114.011334,22.142834 C115.431968,22.1441749 116.822838,22.5456042 118.021207,23.3001531 L118.021207,23.3001531 Z" id="Path"></path>
                    <path d="M129.788958,29.9850877 C129.86191,31.7364403 128.958726,33.3865352 127.436098,34.2837042 C125.91347,35.1808732 124.016199,35.1808732 122.493571,34.2837042 C120.970943,33.3865352 120.067759,31.7364403 120.140712,29.9850877 C120.247286,27.426576 122.37559,25.4066745 124.964835,25.4066745 C127.554079,25.4066745 129.682383,27.426576 129.788958,29.9850877 Z M121.548259,29.9850877 C121.548259,31.8489602 123.07608,33.3599275 124.960743,33.3599275 C126.845406,33.3599275 128.373227,31.8489602 128.373227,29.9850877 C128.373227,28.1212151 126.845406,26.6102478 124.960743,26.6102478 C123.07608,26.6102478 121.548259,28.1212151 121.548259,29.9850877 Z" id="Shape"></path>
                    <polygon id="Path" points="132.317633 34.7033889 132.317633 21.4468238 133.733363 21.4468238 133.733363 34.7033889"></polygon>
                    <path d="M145.542031,34.7033889 L144.134484,34.7033889 L144.134484,32.5748928 C143.539226,34.0172698 142.071975,34.9160155 140.501047,34.8005066 C138.283342,34.8005066 136.941262,33.4084863 136.941262,31.1343137 L136.941262,25.2910658 L138.356993,25.2910658 L138.356993,30.7539361 C138.289634,31.4669725 138.544009,32.1730479 139.052086,32.6833226 C139.560163,33.1935972 140.27011,33.4560153 140.992052,33.4003932 C142.964255,33.4003932 144.118117,31.951721 144.118117,29.944622 L144.118117,25.2910658 L145.525664,25.2910658 L145.542031,34.7033889 Z" id="Path"></path>
                    <path d="M153.897297,34.0640308 C153.264202,34.5014479 152.516852,34.7487534 151.745059,34.7762272 C150.353879,34.7762272 149.290035,33.9669131 149.290035,32.0973975 L149.290035,26.7073655 L147.947955,26.7073655 L147.947955,25.5905121 L149.322768,25.5905121 L149.322768,23.1059178 L150.713949,23.1059178 L150.713949,25.5905121 L153.733629,25.5905121 L153.733629,26.7073655 L150.713949,26.7073655 L150.713949,31.838417 C150.713949,32.9795499 151.164037,33.4084863 151.974195,33.4084863 C152.516486,33.3917799 153.043434,33.2264736 153.49631,32.930991 L153.897297,34.0640308 Z" id="Path"></path>
                    <path d="M157.637118,22.5879567 C157.610348,23.0858515 157.18524,23.4707837 156.681388,23.4533636 C156.177536,23.4359435 155.780648,23.0225917 155.789101,22.5240636 C155.797554,22.0255355 156.208233,21.6255763 156.712392,21.624872 C156.966394,21.6245186 157.20936,21.7275068 157.384263,21.9096649 C157.559166,22.0918229 157.650605,22.3371111 157.637118,22.5879567 Z M156.000435,34.7276683 L156.000435,25.2910658 L157.391615,25.2910658 L157.391615,34.7033889 L156.000435,34.7276683 Z" id="Shape"></path>
                    <path d="M169.543986,29.9850877 C169.616939,31.7364403 168.713755,33.3865352 167.191127,34.2837042 C165.668499,35.1808732 163.771228,35.1808732 162.2486,34.2837042 C160.725972,33.3865352 159.822788,31.7364403 159.89574,29.9850877 C160.002315,27.426576 162.130619,25.4066745 164.719863,25.4066745 C167.309108,25.4066745 169.437411,27.426576 169.543986,29.9850877 Z M161.303288,29.9850877 C161.241578,31.2317012 161.878941,32.4106463 162.961456,33.0522403 C164.043971,33.6938343 165.395756,33.6938343 166.478271,33.0522403 C167.560785,32.4106463 168.198148,31.2317012 168.136439,29.9850877 C168.198148,28.7384741 167.560785,27.559529 166.478271,26.917935 C165.395756,26.276341 164.043971,26.276341 162.961456,26.917935 C161.878941,27.559529 161.241578,28.7384741 161.303288,29.9850877 Z" id="Shape"></path>
                    <path d="M180.730714,28.9006068 L180.730714,34.7033889 L179.314983,34.7033889 L179.314983,29.2728913 C179.384526,28.5506601 179.123846,27.8355158 178.604327,27.3232948 C178.084809,26.8110737 177.360895,26.5554537 176.630823,26.6264341 C175.799202,26.5980664 174.991094,26.9022492 174.389003,27.4702862 C173.786912,28.0383232 173.441621,28.8223043 173.431108,29.6451757 L173.431108,34.7033889 L172.015378,34.7033889 L172.015378,25.2910658 L173.431108,25.2910658 L173.431108,27.36291 C174.089089,25.9628183 175.557238,25.114232 177.113645,25.2344139 C179.388634,25.2344139 180.730714,26.6264341 180.730714,28.9006068 Z" id="Path"></path>
                    <path d="M189.437867,26.0922868 L188.897762,27.2010471 C188.127457,26.7011756 187.232652,26.4211334 186.311803,26.391733 C185.247959,26.391733 184.437801,26.7640175 184.437801,27.6461699 C184.437801,29.7342003 189.748837,28.6578125 189.748837,32.0407455 C189.748837,33.8940748 188.112154,34.7195752 186.254519,34.7195752 C184.913349,34.7414413 183.612075,34.2682242 182.604716,33.3923001 L183.153005,32.3401917 C184.022029,33.1240707 185.152048,33.5647553 186.32817,33.5784423 C187.449298,33.5784423 188.349473,33.1656921 188.374024,32.2349809 C188.423124,29.9689014 183.095721,31.1343137 183.112088,27.7918464 C183.112088,25.987076 184.683303,25.2344139 186.385454,25.2344139 C187.465867,25.2189647 188.527137,25.5172321 189.437867,26.0922868 L189.437867,26.0922868 Z" id="Path"></path>
                </g>
                <path d="M153.894704,19.5482718 C151.553545,17.9637465 148.125393,17.170441 143.610949,17.170441 L122.907039,17.170441 C120.25531,17.170441 118.929795,16.3889551 118.929795,14.8238975 C118.929795,13.5883989 119.322903,12.7137465 120.110517,12.1985499 C120.896733,11.6840485 122.160693,11.4261025 123.901,11.4261025 L150.81909,11.4261025 L161.009116,0.67928089 L126.821329,0.67928089 C123.175639,0.67928089 120.068549,1.04986095 117.500757,1.79102106 C114.931567,2.53218117 112.829629,3.57300358 111.193546,4.91001192 C109.556762,6.24910608 108.366247,7.81346841 107.620602,9.60448947 C106.874956,11.3955105 106.502133,13.340882 106.502133,15.4412992 C106.502133,18.4476559 107.598918,20.8560787 109.795285,22.6679579 C111.990953,24.4798371 115.449882,25.3850814 120.172771,25.3850814 L140.938935,25.3850814 C143.548695,25.3850814 144.853225,26.2096742 144.853225,27.8560787 C144.853225,29.0505562 144.458718,29.9356377 143.672503,30.5120183 C142.885588,31.0890942 141.622327,31.3762416 139.88202,31.3762416 L108.378138,31.3762416 C105.410944,31.3762416 91.2520689,31.3762416 90.0657507,31.3762416 C88.7395366,31.3762416 87.4350063,31.3762416 86.1507609,31.3762416 L76.3860194,31.3762416 L67.2906803,42 L136.961691,42 C140.648651,42 143.786518,41.6196861 146.375294,40.8576679 C148.964069,40.0963449 151.076499,39.0256257 152.713982,37.6455105 C154.350066,36.2667859 155.54128,34.6294199 156.286926,32.7354986 C157.032572,30.8422725 157.405395,28.7821812 157.405395,26.5587008 C157.405395,23.4703019 156.234465,21.1341875 153.894704,19.5482718" id="Fill-33" fill="#FFFFFE"></path>
                <path d="M90.3763199,25.5088399 C90.6603088,26.0734009 90.9589868,26.6643822 91.2702554,27.2755264 L106.809205,27.2755264 L95.0992092,4.63259833 C94.3941333,3.31505761 93.4729181,2.21374652 92.3341645,1.32796981 C91.1940121,0.442888359 89.6516585,0 87.7043061,0 C85.674415,0 83.9145232,0.473480334 82.4225322,1.420441 C80.9312408,2.36809694 79.6469954,3.43812078 78.5704956,4.63259833 L45.263354,42 L60.4875373,42 L84.8462306,14.5763806 L90.3763199,25.5088399" id="Fill-34" fill="#FFFFFE"></path>
                <path d="M34.0220102,16.1824593 L24.6391848,25.3850814 L46.2013568,25.3850814 L45.1451419,31.3762416 L23.4892396,31.3762416 C20.2576417,31.3762416 17.6786588,30.6149186 15.7522907,29.090882 C13.8259227,27.568236 12.8634381,25.5088399 12.8634381,22.9147795 C12.8634381,21.268375 13.2453542,19.7443385 14.0126838,18.3440604 C14.7786145,16.9444776 15.8040523,15.7298371 17.0882976,14.7001391 C18.3718435,13.6711363 19.8743267,12.8680969 21.5936486,12.2910211 C23.3122711,11.7153357 25.1246239,11.4261025 27.0307071,11.4261025 L63.1672454,11.4261025 L73.4209235,0.67928089 L28.9570751,0.67928089 C24.9798315,0.67928089 21.2306185,1.24592769 17.7094359,2.37783075 C14.1882533,3.51112435 11.1231318,5.09564958 8.51337169,7.13349225 C5.90361162,9.17203019 3.83175171,11.6117402 2.2998904,14.4533174 C0.766630135,17.2941994 0,20.4034565 0,23.7790028 C0,26.3737584 0.517615237,28.7821812 1.55354519,31.0056615 C2.58877567,33.2298371 4.04859053,35.1550457 5.93438875,36.7812872 C7.81948748,38.4082241 10.097694,39.6840485 12.7697078,40.610151 C15.4417216,41.5369487 18.3928279,42 21.6244257,42 L38.7882672,42 L62.0152018,16.1824593 L34.0220102,16.1824593" id="Fill-35" fill="#84BF41"></path>
            </g>
        </g>
    </g>
</svg>