<?xml version="1.0" encoding="UTF-8"?>
<svg width="23px" height="39px" viewBox="0 0 23 39" version="1.1" xmlns="http://www.w3.org/2000/svg" xmlns:xlink="http://www.w3.org/1999/xlink">
    <title>3EF00808-3180-4785-B696-A09964086346</title>
    <g id="Page-1" stroke="none" stroke-width="1" fill="none" fill-rule="evenodd" opacity="0.251581101">
        <g id="DT-Gas-Tab-2" transform="translate(-1317.000000, -348.000000)" fill="#FFFFFF">
            <g id="Group-3" transform="translate(80.000000, 298.000000)">
                <path d="M1267.20606,61.75 C1267.20606,62.0774674 1267.08023,62.367026 1266.82858,62.6186758 L1249.21068,80.2365816 C1248.95903,80.4882314 1248.66947,80.6140563 1248.342,80.6140563 C1248.01453,80.6140563 1247.72497,80.4882314 1247.47332,80.2365816 L1229.85542,62.6186758 C1229.60377,62.367026 1229.47794,62.0774674 1229.47794,61.75 C1229.47794,61.4225326 1229.60377,61.132974 1229.85542,60.8813242 L1231.74521,58.991531 C1231.99686,58.7398812 1232.28642,58.6140563 1232.61389,58.6140563 C1232.94135,58.6140563 1233.23091,58.7398812 1233.48256,58.991531 L1248.342,73.8509679 L1263.20144,58.991531 C1263.45309,58.7398812 1263.74265,58.6140563 1264.07011,58.6140563 C1264.39758,58.6140563 1264.68714,58.7398812 1264.93879,58.991531 L1266.82858,60.8813242 C1267.08023,61.132974 1267.20606,61.4225326 1267.20606,61.75 L1267.20606,61.75 Z" id="arrow-right" transform="translate(1248.342000, 69.614056) rotate(-90.000000) translate(-1248.342000, -69.614056) "></path>
            </g>
        </g>
    </g>
</svg>