<?xml version="1.0" encoding="UTF-8"?>
<svg width="17px" height="17px" viewBox="0 0 17 17" version="1.1" xmlns="http://www.w3.org/2000/svg" xmlns:xlink="http://www.w3.org/1999/xlink">
    <title>62C635BD-F89F-4333-AC6A-2A102BEB8CA4</title>
    <g id="Page-1" stroke="none" stroke-width="1" fill="none" fill-rule="evenodd">
        <g id="DT-Gas-Weekly-Report-Generator" transform="translate(-644.000000, -971.000000)" fill="#79BB30">
            <g id="Group-19" transform="translate(644.000000, 971.000000)">
                <path d="M12.5,9.14 L12.5,7.5 L9.14,7.5 L9.14,4.14 L7.5,4.14 L7.5,7.5 L4.14,7.5 L4.14,9.14 L7.5,9.14 L7.5,12.5 L9.14,12.5 L9.14,9.14 L12.5,9.14 Z M8.32,0 C9.8400076,0 11.2466602,0.3799962 12.54,1.14 C13.7933396,1.8600036 14.7799964,2.8466604 15.5,4.1 C16.2600038,5.3933398 16.64,6.7999924 16.64,8.32 C16.64,9.8400076 16.2600038,11.2466602 15.5,12.54 C14.7799964,13.7933396 13.7933396,14.7799964 12.54,15.5 C11.2466602,16.2600038 9.8400076,16.64 8.32,16.64 C6.7999924,16.64 5.3933398,16.2600038 4.1,15.5 C2.8466604,14.766663 1.8600036,13.7733396 1.14,12.52 C0.3799962,11.2266602 0,9.8266742 0,8.32 C0,6.8133258 0.3799962,5.4133398 1.14,4.12 C1.873337,2.8666604 2.8666604,1.873337 4.12,1.14 C5.4133398,0.3799962 6.8133258,0 8.32,0 Z" id="add_circle---material"></path>
            </g>
        </g>
    </g>
</svg>