<?xml version="1.0" encoding="UTF-8"?>
<svg width="29px" height="12px" viewBox="0 0 29 12" version="1.1" xmlns="http://www.w3.org/2000/svg" xmlns:xlink="http://www.w3.org/1999/xlink">
    <title>3CA82D04-6625-44AB-8C8F-8FD2C1FF440A</title>
    <g id="Page-1" stroke="none" stroke-width="1" fill="none" fill-rule="evenodd">
        <g id="DT-Gas-Key-Metrics" transform="translate(-346.000000, -232.000000)" fill="#CCCCCC">
            <g id="Group-7" transform="translate(150.734375, 195.000000)">
                <g id="date-rage" transform="translate(0.000000, 23.000000)">
                    <path d="M223.3125,19.9536372 C223.3125,20.0996372 223.259687,20.2246372 223.154062,20.3286372 L217.060312,25.8596372 C216.891042,26.0056372 216.705859,26.0369705 216.504766,25.9536372 C216.303672,25.8596372 216.203125,25.7086372 216.203125,25.5006372 L216.203125,22.0006372 L196.398438,22.0006372 C196.250156,22.0006372 196.12862,21.9536372 196.033828,21.8596372 C195.939036,21.7656372 195.891302,21.6459705 195.890625,21.5006372 L195.890625,18.5006372 C195.890625,18.3546372 195.938359,18.2349705 196.033828,18.1416372 C196.129297,18.0483039 196.250833,18.0013039 196.398438,18.0006372 L216.203125,18.0006372 L216.203125,14.5006372 C216.203125,14.2819705 216.303672,14.1309705 216.504766,14.0476372 C216.705859,13.9643039 216.891042,13.9903039 217.060312,14.1256372 L223.154062,19.5946372 C223.259687,19.6986372 223.3125,19.8183039 223.3125,19.9536372 L223.3125,19.9536372 Z" id="ico-arrow"></path>
                </g>
            </g>
        </g>
    </g>
</svg>