<?xml version="1.0" encoding="UTF-8"?>
<svg width="18px" height="18px" viewBox="0 0 18 18" version="1.1" xmlns="http://www.w3.org/2000/svg" xmlns:xlink="http://www.w3.org/1999/xlink">
    <title>91DCB8EC-639D-4B34-9D76-FFDB6A2A7911</title>
    <g id="Page-1" stroke="none" stroke-width="1" fill="none" fill-rule="evenodd">
        <g id="DT-Gas-Key-Metrics" transform="translate(-364.000000, -507.000000)" fill="#79BB30">
            <g id="Graph" transform="translate(80.000000, 478.000000)">
                <path d="M296.857143,44.0535714 L296.857143,42.1785714 C296.857143,42.0690714 296.819375,41.9793214 296.743839,41.9093214 C296.668304,41.8393214 296.572143,41.8040714 296.455357,41.8035714 L295.25,41.8035714 L295.25,35.8035714 C295.25,35.6940714 295.212232,35.6043214 295.136696,35.5343214 C295.061161,35.4643214 294.965,35.4290714 294.848214,35.4285714 L290.830357,35.4285714 C290.713036,35.4285714 290.616875,35.4638214 290.541875,35.5343214 C290.466875,35.6048214 290.429107,35.6945714 290.428571,35.8035714 L290.428571,37.6785714 C290.428571,37.7880714 290.466339,37.8778214 290.541875,37.9478214 C290.617411,38.0178214 290.713571,38.0530714 290.830357,38.0535714 L292.035714,38.0535714 L292.035714,41.8035714 L290.830357,41.8035714 C290.713036,41.8035714 290.616875,41.8388214 290.541875,41.9093214 C290.466875,41.9798214 290.429107,42.0695714 290.428571,42.1785714 L290.428571,44.0535714 C290.428571,44.1630714 290.466339,44.2528214 290.541875,44.3228214 C290.617411,44.3928214 290.713571,44.4280714 290.830357,44.4285714 L296.455357,44.4285714 C296.572679,44.4285714 296.668839,44.3933214 296.743839,44.3228214 C296.818839,44.2523214 296.856607,44.1625714 296.857143,44.0535714 L296.857143,44.0535714 Z M294.285714,32.4897959 L294.285714,30.6530612 C294.285714,30.5457959 294.2555,30.4578776 294.195071,30.3893061 C294.134643,30.3207347 294.057714,30.2862041 293.964286,30.2857143 L292.035714,30.2857143 C291.941857,30.2857143 291.864929,30.3202449 291.804929,30.3893061 C291.744929,30.4583673 291.714714,30.5462857 291.714286,30.6530612 L291.714286,32.4897959 C291.714286,32.5970612 291.7445,32.6849796 291.804929,32.753551 C291.865357,32.8221224 291.942286,32.8566531 292.035714,32.8571429 L293.964286,32.8571429 C294.058143,32.8571429 294.135071,32.8226122 294.195071,32.753551 C294.255071,32.6844898 294.285286,32.5965714 294.285714,32.4897959 L294.285714,32.4897959 Z M302,38 C302,39.633136 301.597716,41.1390114 300.793149,42.5176262 C299.988582,43.896241 298.896741,44.988082 297.517626,45.793149 C296.138512,46.5982161 294.632636,47.0004996 293,46.9999995 C291.367364,46.9994995 289.861488,46.597216 288.482374,45.793149 C287.103259,44.9890821 286.011418,43.8972411 285.206851,42.5176262 C284.402284,41.1380113 284,39.6321359 284,38 C284,36.3678641 284.402284,34.8619887 285.206851,33.4823738 C286.011418,32.1027589 287.103259,31.0109179 288.482374,30.206851 C289.861488,29.402784 291.367364,29.0005005 293,29.0000005 C294.632636,28.9995004 296.138512,29.4017839 297.517626,30.206851 C298.896741,31.011918 299.988582,32.103759 300.793149,33.4823738 C301.597716,34.8609886 302,36.366864 302,38 L302,38 Z" id="ico-info"></path>
            </g>
        </g>
    </g>
</svg>