<?xml version="1.0" encoding="UTF-8"?>
<svg width="16px" height="16px" viewBox="0 0 16 16" version="1.1" xmlns="http://www.w3.org/2000/svg" xmlns:xlink="http://www.w3.org/1999/xlink">
    <title>3B5AC74C-255A-4D70-BA8E-2A2EB3FCF9F2</title>
    <g id="Page-1" stroke="none" stroke-width="1" fill="none" fill-rule="evenodd">
        <g id="DT-Gas-Key-Metrics" transform="translate(-525.000000, -231.000000)" fill="#CCCCCC">
            <g id="Group-7" transform="translate(150.734375, 195.000000)">
                <g id="date-rage" transform="translate(0.000000, 23.000000)">
                    <path d="M386.233956,23.3541966 C386.233956,23.1737371 386.16795,23.0175019 386.035939,22.8854909 L384.150449,21.0000004 L386.035939,19.11451 C386.16795,18.982499 386.233956,18.8262637 386.233956,18.6458042 C386.233956,18.458233 386.16795,18.298442 386.035939,18.1664309 L385.098528,17.2290195 C384.966517,17.0970085 384.806726,17.031003 384.619154,17.031003 C384.438695,17.031003 384.28246,17.0970085 384.150449,17.2290195 L382.264958,19.11451 L380.379468,17.2290195 C380.247457,17.0970085 380.091222,17.031003 379.910762,17.031003 C379.723191,17.031003 379.5634,17.0970085 379.431389,17.2290195 L378.493977,18.1664309 C378.361966,18.298442 378.295961,18.458233 378.295961,18.6458042 C378.295961,18.8262637 378.361966,18.982499 378.493977,19.11451 L380.379468,21.0000004 L378.493977,22.8854909 C378.361966,23.0175019 378.295961,23.1737371 378.295961,23.3541966 C378.295961,23.5417678 378.361966,23.7015589 378.493977,23.8335699 L379.431389,24.7709813 C379.5634,24.9029923 379.723191,24.9689978 379.910762,24.9689978 C380.091222,24.9689978 380.247457,24.9029923 380.379468,24.7709813 L382.264958,22.8854909 L384.150449,24.7709813 C384.28246,24.9029923 384.438695,24.9689978 384.619154,24.9689978 C384.806726,24.9689978 384.966517,24.9029923 385.098528,24.7709813 L386.035939,23.8335699 C386.16795,23.7015589 386.233956,23.5417678 386.233956,23.3541966 L386.233956,23.3541966 Z M390.265625,21.0000004 C390.265625,22.4516769 389.90804,23.7902329 389.192869,25.0156684 C388.477698,26.2411038 387.507173,27.2116292 386.281293,27.9272444 C385.055413,28.6428595 383.716857,29.0004449 382.265625,29.0000004 C380.814393,28.9995559 379.475837,28.6419706 378.249957,27.9272444 C377.024077,27.2125181 376.053552,26.2419928 375.338381,25.0156684 C374.62321,23.789344 374.265625,22.450788 374.265625,21.0000004 C374.265625,19.5492128 374.62321,18.2106569 375.338381,16.9843324 C376.053552,15.758008 377.024077,14.7874827 378.249957,14.0727565 C379.475837,13.3580302 380.814393,13.0004449 382.265625,13.0000004 C383.716857,12.9995559 385.055413,13.3571413 386.281293,14.0727565 C387.507173,14.7883717 388.477698,15.758897 389.192869,16.9843324 C389.90804,18.2097679 390.265625,19.5483239 390.265625,21.0000004 L390.265625,21.0000004 Z" id="ico-close"></path>
                </g>
            </g>
        </g>
    </g>
</svg>