<?xml version="1.0" encoding="UTF-8"?>
<svg width="18px" height="18px" viewBox="0 0 18 18" version="1.1" xmlns="http://www.w3.org/2000/svg" xmlns:xlink="http://www.w3.org/1999/xlink">
    <title>AA325A9E-E2B8-4765-A964-BFEA0003104A</title>
    <g id="Page-1" stroke="none" stroke-width="1" fill="none" fill-rule="evenodd">
        <g id="DT-Gas-Key-Metrics" transform="translate(-165.000000, -229.000000)" fill="#CCCCCC">
            <g id="Group-7" transform="translate(150.734375, 195.000000)">
                <g id="date-rage" transform="translate(0.000000, 23.000000)">
                    <path d="M16.5401785,27.7142858 L19.4782364,27.7142858 L19.4782364,24.8214288 L16.5401785,24.8214288 L16.5401785,27.7142858 L16.5401785,27.7142858 Z M20.1311382,27.7142858 L23.3956469,27.7142858 L23.3956469,24.8214288 L20.1311382,24.8214288 L20.1311382,27.7142858 L20.1311382,27.7142858 Z M16.5401785,24.1785717 L19.4782364,24.1785717 L19.4782364,20.9642861 L16.5401785,20.9642861 L16.5401785,24.1785717 L16.5401785,24.1785717 Z M20.1311382,24.1785717 L23.3956469,24.1785717 L23.3956469,20.9642861 L20.1311382,20.9642861 L20.1311382,24.1785717 L20.1311382,24.1785717 Z M16.5401785,20.321429 L19.4782364,20.321429 L19.4782364,17.428572 L16.5401785,17.428572 L16.5401785,20.321429 L16.5401785,20.321429 Z M24.0485487,27.7142858 L27.3130574,27.7142858 L27.3130574,24.8214288 L24.0485487,24.8214288 L24.0485487,27.7142858 L24.0485487,27.7142858 Z M20.1311382,20.321429 L23.3956469,20.321429 L23.3956469,17.428572 L20.1311382,17.428572 L20.1311382,20.321429 L20.1311382,20.321429 Z M27.9659592,27.7142858 L30.9040171,27.7142858 L30.9040171,24.8214288 L27.9659592,24.8214288 L27.9659592,27.7142858 L27.9659592,27.7142858 Z M24.0485487,24.1785717 L27.3130574,24.1785717 L27.3130574,20.9642861 L24.0485487,20.9642861 L24.0485487,24.1785717 L24.0485487,24.1785717 Z M20.457589,15.5000007 L20.457589,12.6071437 C20.457589,12.5201437 20.4253792,12.4447151 20.3609596,12.3808579 C20.2965399,12.3170008 20.2199328,12.2852865 20.1311382,12.2857151 L19.4782364,12.2857151 C19.389877,12.2857151 19.3132699,12.3174294 19.248415,12.3808579 C19.1835601,12.4442865 19.1513503,12.5197151 19.1517855,12.6071437 L19.1517855,15.5000007 C19.1517855,15.5870007 19.1839953,15.6624292 19.248415,15.7262864 C19.3128346,15.7901435 19.3894418,15.8218578 19.4782364,15.8214292 L20.1311382,15.8214292 C20.2194975,15.8214292 20.2961047,15.7897149 20.3609596,15.7262864 C20.4258145,15.6628578 20.4580243,15.5874292 20.457589,15.5000007 L20.457589,15.5000007 Z M27.9659592,24.1785717 L30.9040171,24.1785717 L30.9040171,20.9642861 L27.9659592,20.9642861 L27.9659592,24.1785717 L27.9659592,24.1785717 Z M24.0485487,20.321429 L27.3130574,20.321429 L27.3130574,17.428572 L24.0485487,17.428572 L24.0485487,20.321429 L24.0485487,20.321429 Z M27.9659592,20.321429 L30.9040171,20.321429 L30.9040171,17.428572 L27.9659592,17.428572 L27.9659592,20.321429 L27.9659592,20.321429 Z M28.2924101,15.5000007 L28.2924101,12.6071437 C28.2924101,12.5201437 28.2602003,12.4447151 28.1957806,12.3808579 C28.131361,12.3170008 28.0547538,12.2852865 27.9659592,12.2857151 L27.3130574,12.2857151 C27.2246981,12.2857151 27.1480909,12.3174294 27.083236,12.3808579 C27.0183811,12.4442865 26.9861713,12.5197151 26.9866066,12.6071437 L26.9866066,15.5000007 C26.9866066,15.5870007 27.0188164,15.6624292 27.083236,15.7262864 C27.1476557,15.7901435 27.2242628,15.8218578 27.3130574,15.8214292 L27.9659592,15.8214292 C28.0543186,15.8214292 28.1309257,15.7897149 28.1957806,15.7262864 C28.2606355,15.6628578 28.2928453,15.5874292 28.2924101,15.5000007 L28.2924101,15.5000007 Z M32.2098206,14.8571435 L32.2098206,27.7142858 C32.2098206,28.0622858 32.0805461,28.3635715 31.821997,28.6181429 C31.5634479,28.8727143 31.2574546,29 30.9040171,29 L16.5401785,29 C16.186741,29 15.8807477,28.8727143 15.6221986,28.6181429 C15.3636495,28.3635715 15.234375,28.0622858 15.234375,27.7142858 L15.234375,14.8571435 C15.234375,14.5091436 15.3636495,14.2078579 15.6221986,13.9532864 C15.8807477,13.698715 16.186741,13.5714293 16.5401785,13.5714293 L17.845982,13.5714293 L17.845982,12.6071437 C17.845982,12.1652865 18.0057253,11.786858 18.3252119,11.471858 C18.6446985,11.156858 19.02904,10.9995723 19.4782364,11.0000009 L20.1311382,11.0000009 C20.5798993,11.0000009 20.9642408,11.1572866 21.2841627,11.471858 C21.6040845,11.7864294 21.7638278,12.164858 21.7633925,12.6071437 L21.7633925,13.5714293 L25.6808031,13.5714293 L25.6808031,12.6071437 C25.6808031,12.1652865 25.8405464,11.786858 26.160033,11.471858 C26.4795195,11.156858 26.863861,10.9995723 27.3130574,11.0000009 L27.9659592,11.0000009 C28.4147203,11.0000009 28.7990618,11.1572866 29.1189837,11.471858 C29.4389056,11.7864294 29.5986489,12.164858 29.5982136,12.6071437 L29.5982136,13.5714293 L30.9040171,13.5714293 C31.2574546,13.5714293 31.5634479,13.698715 31.821997,13.9532864 C32.0805461,14.2078579 32.2098206,14.5091436 32.2098206,14.8571435 L32.2098206,14.8571435 Z" id="ico-date"></path>
                </g>
            </g>
        </g>
    </g>
</svg>