<?xml version="1.0" encoding="UTF-8"?>
<svg width="16px" height="16px" viewBox="0 0 16 16" version="1.1" xmlns="http://www.w3.org/2000/svg" xmlns:xlink="http://www.w3.org/1999/xlink">
    <title>AEC7A704-2258-4B84-91C4-20654970657E</title>
    <g id="Page-1" stroke="none" stroke-width="1" fill="none" fill-rule="evenodd">
        <g id="DT-Gas-Tab-4" transform="translate(-1232.000000, -624.000000)" fill="#FFFFFF" fill-rule="nonzero">
            <g id="Group-4-Copy-2" transform="translate(119.000000, 580.000000)">
                <path d="M1128.01863,60 C1128.29193,60 1128.52381,59.9047619 1128.71429,59.7142857 C1128.90476,59.5238095 1129,59.2919255 1129,59.0186335 C1129,58.7453416 1128.90062,58.5175983 1128.70186,58.3354037 L1122.3913,52 L1128.70186,45.6645963 C1128.90062,45.4824017 1129,45.2546584 1129,44.9813665 C1129,44.7080745 1128.90476,44.4761905 1128.71429,44.2857143 C1128.52381,44.0952381 1128.29193,44 1128.01863,44 C1127.74534,44 1127.5176,44.0993789 1127.3354,44.2981366 L1121,50.6086957 L1114.6646,44.2981366 C1114.4824,44.0993789 1114.25466,44 1113.98137,44 C1113.70807,44 1113.47619,44.0952381 1113.28571,44.2857143 C1113.09524,44.4761905 1113,44.7080745 1113,44.9813665 C1113,45.2546584 1113.09938,45.4824017 1113.29814,45.6645963 L1119.6087,52 L1113.29814,58.3354037 C1113.09938,58.5175983 1113,58.7453416 1113,59.0186335 C1113,59.2919255 1113.09524,59.5238095 1113.28571,59.7142857 C1113.47619,59.9047619 1113.70807,60 1113.98137,60 C1114.25466,60 1114.4824,59.9006211 1114.6646,59.7018634 L1121,53.3664596 L1127.3354,59.7018634 C1127.5176,59.9006211 1127.74534,60 1128.01863,60 Z" id="icon-x"></path>
            </g>
        </g>
    </g>
</svg>